:SAMPLES-PER-SECOND 30
:FULLY-SPECIFIED
:DEGREES
529
root  -36.886 39.8297 -24.6466 176.558 67.896 -179.794
RightUpLeg  -5.44948 -8.3762 7.94813
RightLeg  20.2006 -8.07263 1.20081
RightFoot  -12.8332 -0.25953 -13.2246
RightToes  -4.65663e-010 0 -3.6325e-017
Spine  6.52541 -1.70703 11.1738
Spine1  8.50068 -0.402874 -0.0113246
HEad  -15.234 -15.8029 1.15793
LeftShoulder1  8.9739 -12.3753 -49.3352
LeftArm  -5.64737 16.9424 -22.6071
LeftForeArm  22.9218 -19.7161 -3.91863
LeftHand  -0.244104 0.0205437 5.32207
RightShoulder  6.21878 9.66687 41.0183
RightArm  -2.42373 -3.84422 36.3073
RightForeArm  11.8989 14.0011 6.17763
RightHand  -1.43438 4.40109 -17.1619
LeftUpLeg  -14.4543 9.98884 7.37787
LeftLeg  60.6016 4.03453 8.27156
LeftFoot  7.09123 0.45382 -3.0509
LeftToes  -7.27628e-011 -1.6005e-012 -1.37987e-011
530
root  -35.881 40.0618 -25.3268 174.135 71.4614 177.302
RightUpLeg  -2.67862 -7.08045 6.23943
RightLeg  18.3673 -5.57027 2.25906
RightFoot  -13.345 -0.307887 -12.4002
RightToes  -4.65663e-010 0 -3.6325e-017
Spine  6.71729 -0.898846 11.5535
Spine1  8.21096 0.880777 -2.17692
HEad  -15.3858 -15.1484 1.34036
LeftShoulder1  9.03703 -12.5084 -49.2697
LeftArm  -5.87598 19.8432 -23.9125
LeftForeArm  23.6699 -17.0091 -4.41838
LeftHand  -0.244104 0.0205437 5.32207
RightShoulder  6.24367 9.73017 40.9829
RightArm  3.94771 -0.513648 37.2795
RightForeArm  6.75864 17.5698 5.71799
RightHand  -1.30506 3.67086 -16.8696
LeftUpLeg  -17.4768 9.12854 6.3788
LeftLeg  55.7644 5.12101 8.5383
LeftFoot  4.32389 0.20193 -1.71673
LeftToes  -7.27628e-011 -1.6005e-012 -1.37987e-011
531
root  -34.8566 40.2486 -25.9849 170.149 74.7853 173.051
RightUpLeg  0.230359 -6.57321 4.4325
RightLeg  16.5894 -2.34636 2.95762
RightFoot  -13.8624 -0.356056 -11.8898
RightToes  -4.65663e-010 0 -3.6325e-017
Spine  6.96714 -0.188008 11.6074
Spine1  8.13554 1.99537 -4.17114
HEad  -15.7023 -14.4013 1.34672
LeftShoulder1  9.12463 -12.6041 -49.4523
LeftArm  -6.62749 22.4521 -24.9789
LeftForeArm  25.3773 -14.5444 -4.89403
LeftHand  -0.244104 0.0205437 5.32207
RightShoulder  6.29312 9.84476 40.9506
RightArm  9.74155 2.6023 37.8958
RightForeArm  2.01951 21.2305 5.05791
RightHand  -1.28311 3.44193 -17.0019
LeftUpLeg  -19.0958 8.58459 5.78709
LeftLeg  48.0888 5.81271 7.32251
LeftFoot  1.66281 0.360388 -3.24395
LeftToes  -7.27628e-011 -1.6005e-012 -1.37987e-011
532
root  -33.7986 40.315 -26.6395 166.444 77.2286 169.023
RightUpLeg  2.6361 -6.69793 2.78859
RightLeg  15.4756 0.663043 3.50533
RightFoot  -14.8185 -0.448368 -11.4462
RightToes  -4.65663e-010 0 -3.6325e-017
Spine  6.804 0.157411 11.696
Spine1  8.20677 2.58348 -5.67463
HEad  -15.9395 -13.5754 1.15954
LeftShoulder1  9.2006 -12.6443 -49.7393
LeftArm  -7.42153 24.9516 -25.9008
LeftForeArm  26.8294 -12.4717 -5.20563
LeftHand  -0.244104 0.0205437 5.32207
RightShoulder  6.34605 9.99896 40.8129
RightArm  12.7369 5.42218 38.3004
RightForeArm  1.13243 24.4139 5.10195
RightHand  -1.32958 3.60239 -17.3025
LeftUpLeg  -19.9606 7.87928 5.54459
LeftLeg  38.0987 5.30523 4.84286
LeftFoot  1.23262 0.491169 -4.51971
LeftToes  -7.27628e-011 -1.6005e-012 -1.37987e-011
533
root  -32.6901 40.2984 -27.2765 164.88 78.8094 166.948
RightUpLeg  4.63508 -6.94848 1.57992
RightLeg  14.5749 2.88046 3.94181
RightFoot  -15.9093 -0.54296 -10.8839
RightToes  -4.65663e-010 0 -3.6325e-017
Spine  6.15336 0.276485 11.9646
Spine1  8.25428 2.78878 -6.83544
HEad  -15.9663 -12.9659 0.902644
LeftShoulder1  9.24711 -12.6941 -49.837
LeftArm  -8.07817 27.358 -26.8734
LeftForeArm  27.6869 -10.697 -5.35814
LeftHand  -0.244104 0.0205437 5.32207
RightShoulder  6.31231 10.023 40.4984
RightArm  13.6837 7.50893 38.6275
RightForeArm  2.61961 27.3293 5.75359
RightHand  -1.27804 3.35778 -17.0894
LeftUpLeg  -20.3727 7.55675 5.39113
LeftLeg  26.718 2.44595 1.80687
LeftFoot  2.38018 0.573124 -4.87595
LeftToes  -7.27628e-011 -1.6005e-012 -1.37987e-011
